<?xml version="1.0" encoding="utf-8"?>
<svg width="960" height="720" xmlns="http://www.w3.org/2000/svg" overflow="hidden">
  <defs>
    <clipPath id="clip0">
      <rect x="0" y="0" width="960" height="720"/>
    </clipPath>
  </defs>
  <g clip-path="url(#clip0)">
    <rect x="0" y="0" width="960" height="720" fill="#FFFFFF"/>
    <rect x="18.5001" y="71.5001" width="923" height="587" stroke="#000000" stroke-width="3" stroke-miterlimit="8" fill="none"/>
    <rect x="18.5001" y="71.5001" width="923" height="139" stroke="#000000" stroke-width="3" stroke-miterlimit="8" fill="none"/>
    <text font-family="Century Gothic,Century Gothic_MSFontService,sans-serif" font-weight="400" font-size="11" transform="translate(27.5466 87)" style="white-space: pre;">CAPABILITY:</text>
    <text fill="#BFBFBF" font-family="Century Gothic,Century Gothic_MSFontService,sans-serif" font-weight="400" font-size="7" transform="translate(27.5466 97)" style="white-space: pre;">Verb / Noun / Outcome</text>
    <text font-family="Century Gothic,Century Gothic_MSFontService,sans-serif" font-weight="400" font-size="11" style="white-space: pre; font-size: 11px;" x="481.397" y="88.273">DESCRIPTION:</text>
    <text fill="#BFBFBF" font-family="Century Gothic,Century Gothic_MSFontService,sans-serif" font-weight="400" font-size="7" style="white-space: pre; font-size: 7px;" x="486.009" y="103.609">Description of what the capability does &amp; what other capabilities it connects to.</text>
    <rect x="319.26" y="209.499" width="314.213" height="152.999" stroke="#000000" stroke-width="3" stroke-miterlimit="8" fill="none" style="" transform="matrix(0.999995, 0.003096, 0, 1.000005, 308.02914, -1.238197)"/>
    <text font-family="Century Gothic,Century Gothic_MSFontService,sans-serif" font-weight="400" font-size="11" style="white-space: pre; font-size: 11px;" x="28.132" y="226.174">OUTCOME(S)</text>
    <text fill="#BFBFBF" font-family="Century Gothic,Century Gothic_MSFontService,sans-serif" font-weight="400" font-size="7" style="white-space: pre; font-size: 7px;" x="29.83" y="238.887">What business does this capability enable? How is it measured?</text>
    <text font-family="Century Gothic,Century Gothic_MSFontService,sans-serif" font-weight="400" font-size="17" transform="translate(22.8 42)" style="white-space: pre;">TECHNICAL CAPABILITY CARD</text>
    <rect x="765" y="24" width="86" height="39" fill="#D9D9D9"/>
    <text font-family="Century Gothic,Century Gothic_MSFontService,sans-serif" font-weight="400" font-size="7" transform="translate(774.441 35)" style="white-space: pre;">DATE:</text>
    <rect x="855" y="24" width="86" height="39" fill="#D9D9D9"/>
    <text font-family="Century Gothic,Century Gothic_MSFontService,sans-serif" font-weight="400" font-size="7" transform="translate(864.455 35)" style="white-space: pre;">VERSION:</text>
    <text font-family="Century Gothic,Century Gothic_MSFontService,sans-serif" font-weight="400" font-size="7" transform="translate(22.8001 669)" style="white-space: pre;">Designed By:</text>
    <text font-family="Century Gothic,Century Gothic_MSFontService,sans-serif" font-weight="700" font-size="7" transform="translate(70.9668 669)" style="white-space: pre;">Paul Preiss</text>
    <text font-family="Century Gothic,Century Gothic_MSFontService,sans-serif" font-weight="400" font-size="7" transform="translate(161.467 669)" style="white-space: pre;">for</text>
    <text font-family="Century Gothic,Century Gothic_MSFontService,sans-serif" font-weight="700" font-size="7" transform="translate(172.8 669)" style="white-space: pre;">IASA Global.</text>
    <text font-family="Century Gothic,Century Gothic_MSFontService,sans-serif" font-weight="400" font-size="7" transform="translate(22.8001 678)" style="white-space: pre;">This work is licensed under a Creative Commons Attribution-NonCommercial-</text>
    <text font-family="Century Gothic,Century Gothic_MSFontService,sans-serif" font-weight="400" font-size="7" transform="translate(232.8 678)" style="white-space: pre;">-</text>
    <text font-family="Century Gothic,Century Gothic_MSFontService,sans-serif" font-weight="400" font-size="7" style="white-space: pre; font-size: 7px;" x="264.65" y="678.281">ShareAlike 4.0 International License. http://creativecommons.org/lice</text>
    <text font-family="Century Gothic,Century Gothic_MSFontService,sans-serif" font-weight="400" font-size="7" transform="translate(482.8 678)" style="white-space: pre;">nses/by</text>
    <text font-family="Century Gothic,Century Gothic_MSFontService,sans-serif" font-weight="400" font-size="7" transform="translate(509.967 678)" style="white-space: pre;">-</text>
    <text font-family="Century Gothic,Century Gothic_MSFontService,sans-serif" font-weight="400" font-size="7" transform="translate(512.467 678)" style="white-space: pre;">sa/4.0</text>
    <rect x="618" y="23" width="143" height="40" fill="#D9D9D9"/>
    <text font-family="Century Gothic,Century Gothic_MSFontService,sans-serif" font-weight="400" font-size="7" transform="translate(627.469 35)" style="white-space: pre;">CAPABILITY OWNER:</text>
    <text fill="#BFBFBF" font-family="Century Gothic,Century Gothic_MSFontService,sans-serif" font-weight="400" font-size="10" transform="translate(886.586 122)" style="white-space: pre;">–</text>
    <text font-family="Century Gothic,Century Gothic_MSFontService,sans-serif" font-style="italic" font-weight="400" font-size="9" transform="translate(27.5466 169)" style="white-space: pre;">_________________________________________________</text>
    <text fill="#A6A6A6" font-family="Century Gothic,Century Gothic_MSFontService,sans-serif" font-style="italic" font-weight="400" font-size="7" transform="translate(27.5466 178)" style="white-space: pre;">[verb]</text>
    <rect x="18.5001" y="362.5" width="304" height="133" stroke="#000000" stroke-width="3" stroke-miterlimit="8" fill="none"/>
    <text font-family="Century Gothic,Century Gothic_MSFontService,sans-serif" font-weight="400" font-size="11" transform="translate(27.5466 378)" style="white-space: pre;">SOFTWARE:</text>
    <text fill="#BFBFBF" font-family="Century Gothic,Century Gothic_MSFontService,sans-serif" font-weight="400" font-size="7" transform="translate(27.5466 388)" style="white-space: pre;">Who directly supports or enables this capability</text>
    <rect x="322.5" y="363.5" width="303" height="132" stroke="#000000" stroke-width="3" stroke-miterlimit="8" fill="none"/>
    <text font-family="Century Gothic,Century Gothic_MSFontService,sans-serif" font-weight="400" font-size="11" transform="translate(331.491 378)" style="white-space: pre;">INFRASTRUCTURE:</text>
    <text fill="#BFBFBF" font-family="Century Gothic,Century Gothic_MSFontService,sans-serif" font-weight="400" font-size="7" transform="translate(331.491 388)" style="white-space: pre;">What business processes currently contribute to realise this capability?</text>
    <rect x="625.5" y="363.5" width="315" height="132" stroke="#000000" stroke-width="3" stroke-miterlimit="8" fill="none"/>
    <text font-family="Century Gothic,Century Gothic_MSFontService,sans-serif" font-weight="400" font-size="11" transform="translate(634.419 378)" style="white-space: pre;">INFORMATION:</text>
    <text fill="#BFBFBF" font-family="Century Gothic,Century Gothic_MSFontService,sans-serif" font-weight="400" font-size="7" transform="translate(634.419 388)" style="white-space: pre;">What application services &amp; components are the primary enabler of this capability</text>
    <rect x="479" y="316" width="143" height="39" fill="#D9D9D9"/>
    <text font-family="Century Gothic,Century Gothic_MSFontService,sans-serif" font-weight="400" font-size="7" transform="translate(488.634 328)" style="white-space: pre;">SOURCING:</text>
    <rect x="18.5001" y="495.5" width="304" height="162" stroke="#000000" stroke-width="3" stroke-miterlimit="8" fill="none"/>
    <text font-family="Century Gothic,Century Gothic_MSFontService,sans-serif" font-weight="400" font-size="11" transform="translate(27.3769 511)" style="white-space: pre;">PERFORMANCE:</text>
    <text fill="#BFBFBF" font-family="Century Gothic,Century Gothic_MSFontService,sans-serif" font-weight="400" font-size="7" transform="translate(27.3769 521)" style="white-space: pre;">Who directly supports or enables this capability</text>
    <rect x="322.5" y="495.5" width="303" height="162" stroke="#000000" stroke-width="3" stroke-miterlimit="8" fill="none"/>
    <text font-family="Century Gothic,Century Gothic_MSFontService,sans-serif" font-weight="400" font-size="11" transform="translate(331.322 511)" style="white-space: pre;">MATURITY:</text>
    <text fill="#BFBFBF" font-family="Century Gothic,Century Gothic_MSFontService,sans-serif" font-weight="400" font-size="7" transform="translate(331.322 521)" style="white-space: pre;">What level of maturity does the capability exhibit currently?</text>
    <rect x="625.5" y="495.5" width="315" height="162" stroke="#000000" stroke-width="3" stroke-miterlimit="8" fill="none"/>
    <text font-family="Century Gothic,Century Gothic_MSFontService,sans-serif" font-weight="400" font-size="11" transform="translate(634.25 511)" style="white-space: pre;">STRATEGY:</text>
    <text fill="#BFBFBF" font-family="Century Gothic,Century Gothic_MSFontService,sans-serif" font-weight="400" font-size="7" transform="translate(634.25 521)" style="white-space: pre;">What impact does this capability have on strategy</text>
    <rect x="637.316" y="315" width="132.684" height="39" fill="#D9D9D9" style=""/>
    <text font-family="Century Gothic,Century Gothic_MSFontService,sans-serif" font-weight="400" font-size="7" style="white-space: pre; font-size: 7px;" x="642.539" y="326.6">KEY DEMAND DRIVER:</text>
    <path d="M61.5001 606.5 276.448 607.347" stroke="#000000" stroke-width="0.666667" stroke-miterlimit="8" fill="none" fill-rule="evenodd"/>
    <path d="M161.5 608 170 597.5 178.5 608 170 618.5Z" stroke="#000000" stroke-width="1.33333" stroke-miterlimit="8" fill-rule="evenodd"/>
    <path d="M211.5 608 220 597.5 228.5 608 220 618.5Z" stroke="#000000" stroke-width="1.33333" stroke-miterlimit="8" fill-rule="evenodd"/>
    <path d="M111.5 608 120 597.5 128.5 608 120 618.5Z" stroke="#000000" stroke-width="1.33333" stroke-miterlimit="8" fill-rule="evenodd"/>
    <path d="M260.5 608 269 597.5 277.5 608 269 618.5Z" stroke="#000000" stroke-width="1.33333" stroke-miterlimit="8" fill-rule="evenodd"/>
    <path d="M62.5001 608 71.0001 597.5 79.5001 608 71.0001 618.5Z" stroke="#000000" stroke-width="1.33333" stroke-miterlimit="8" fill-rule="evenodd"/>
    <path d="M340.5 557.5 440.854 558.008" stroke="#000000" stroke-width="0.666667" stroke-miterlimit="8" fill="none" fill-rule="evenodd"/>
    <path d="M387.5 558.5 391.5 553.5 395.5 558.5 391.5 563.5Z" stroke="#000000" stroke-width="1.33333" stroke-miterlimit="8" fill-rule="evenodd"/>
    <path d="M410.5 558.5 414.5 553.5 418.5 558.5 414.5 563.5Z" stroke="#000000" stroke-width="1.33333" stroke-miterlimit="8" fill-rule="evenodd"/>
    <path d="M364.5 558.5 368.5 553.5 372.5 558.5 368.5 563.5Z" stroke="#000000" stroke-width="1.33333" stroke-miterlimit="8" fill-rule="evenodd"/>
    <path d="M433.5 558.5 437.5 553.5 441.5 558.5 437.5 563.5Z" stroke="#000000" stroke-width="1.33333" stroke-miterlimit="8" fill-rule="evenodd"/>
    <path d="M341.5 558.5 345.5 553.5 349.5 558.5 345.5 563.5Z" stroke="#000000" stroke-width="1.33333" stroke-miterlimit="8" fill-rule="evenodd"/>
    <path d="M341.5 597.5 441.854 597.839" stroke="#000000" stroke-width="0.666667" stroke-miterlimit="8" fill="none" fill-rule="evenodd"/>
    <path d="M387.5 598 391.5 593.5 395.5 598 391.5 602.5Z" stroke="#000000" stroke-width="1.33333" stroke-miterlimit="8" fill-rule="evenodd"/>
    <path d="M410.5 598 414.5 593.5 418.5 598 414.5 602.5Z" stroke="#000000" stroke-width="1.33333" stroke-miterlimit="8" fill-rule="evenodd"/>
    <path d="M364.5 598 368.5 593.5 372.5 598 368.5 602.5Z" stroke="#000000" stroke-width="1.33333" stroke-miterlimit="8" fill-rule="evenodd"/>
    <path d="M433.5 598 437.5 593.5 441.5 598 437.5 602.5Z" stroke="#000000" stroke-width="1.33333" stroke-miterlimit="8" fill-rule="evenodd"/>
    <path d="M341.5 598 345.5 593.5 349.5 598 345.5 602.5Z" stroke="#000000" stroke-width="1.33333" stroke-miterlimit="8" fill-rule="evenodd"/>
    <path d="M485.5 557.5 585.854 558.008" stroke="#000000" stroke-width="0.666667" stroke-miterlimit="8" fill="none" fill-rule="evenodd"/>
    <path d="M532.5 558.5 536.5 553.5 540.5 558.5 536.5 563.5Z" stroke="#000000" stroke-width="1.33333" stroke-miterlimit="8" fill-rule="evenodd"/>
    <path d="M555.5 558.5 559.5 553.5 563.5 558.5 559.5 563.5Z" stroke="#000000" stroke-width="1.33333" stroke-miterlimit="8" fill-rule="evenodd"/>
    <path d="M509.5 558.5 513.5 553.5 517.5 558.5 513.5 563.5Z" stroke="#000000" stroke-width="1.33333" stroke-miterlimit="8" fill-rule="evenodd"/>
    <path d="M578.5 558.5 582.5 553.5 586.5 558.5 582.5 563.5Z" stroke="#000000" stroke-width="1.33333" stroke-miterlimit="8" fill-rule="evenodd"/>
    <path d="M486.5 558.5 490.5 553.5 494.5 558.5 490.5 563.5Z" stroke="#000000" stroke-width="1.33333" stroke-miterlimit="8" fill-rule="evenodd"/>
    <path d="M486.5 597.5 586.854 597.839" stroke="#000000" stroke-width="0.666667" stroke-miterlimit="8" fill="none" fill-rule="evenodd"/>
    <path d="M532.5 598 536.5 593.5 540.5 598 536.5 602.5Z" stroke="#000000" stroke-width="1.33333" stroke-miterlimit="8" fill-rule="evenodd"/>
    <path d="M555.5 598 559.5 593.5 563.5 598 559.5 602.5Z" stroke="#000000" stroke-width="1.33333" stroke-miterlimit="8" fill-rule="evenodd"/>
    <path d="M509.5 598 513.5 593.5 517.5 598 513.5 602.5Z" stroke="#000000" stroke-width="1.33333" stroke-miterlimit="8" fill-rule="evenodd"/>
    <path d="M579.5 598 583.5 593.5 587.5 598 583.5 602.5Z" stroke="#000000" stroke-width="1.33333" stroke-miterlimit="8" fill-rule="evenodd"/>
    <path d="M486.5 598 490.5 593.5 494.5 598 490.5 602.5Z" stroke="#000000" stroke-width="1.33333" stroke-miterlimit="8" fill-rule="evenodd"/>
    <text fill="#A6A6A6" font-family="Century Gothic,Century Gothic_MSFontService,sans-serif" font-style="italic" font-weight="400" font-size="7" transform="translate(131.161 580)" style="white-space: pre;">efficiency</text>
    <text fill="#A6A6A6" font-family="Century Gothic,Century Gothic_MSFontService,sans-serif" font-style="italic" font-weight="400" font-size="7" transform="translate(131.161 630)" style="white-space: pre;">effectiveness</text>
    <text fill="#A6A6A6" font-family="Century Gothic,Century Gothic_MSFontService,sans-serif" font-style="italic" font-weight="400" font-size="7" transform="translate(341.981 573)" style="white-space: pre;">process definition</text>
    <text fill="#A6A6A6" font-family="Century Gothic,Century Gothic_MSFontService,sans-serif" font-style="italic" font-weight="400" font-size="7" transform="translate(342.904 613)" style="white-space: pre;">digitization</text>
    <text fill="#A6A6A6" font-family="Century Gothic,Century Gothic_MSFontService,sans-serif" font-style="italic" font-weight="400" font-size="7" transform="translate(488.358 573)" style="white-space: pre;">organization scope</text>
    <text fill="#A6A6A6" font-family="Century Gothic,Century Gothic_MSFontService,sans-serif" font-style="italic" font-weight="400" font-size="7" transform="translate(489.281 613)" style="white-space: pre;">outcome measurement</text>
    <path d="M61.5001 560.5 276.448 561.347" stroke="#000000" stroke-width="0.666667" stroke-miterlimit="8" fill="none" fill-rule="evenodd"/>
    <path d="M161.5 562 170 551.5 178.5 562 170 572.5Z" stroke="#000000" stroke-width="1.33333" stroke-miterlimit="8" fill-rule="evenodd"/>
    <path d="M211.5 562 220 551.5 228.5 562 220 572.5Z" stroke="#000000" stroke-width="1.33333" stroke-miterlimit="8" fill-rule="evenodd"/>
    <path d="M111.5 562 120 551.5 128.5 562 120 572.5Z" stroke="#000000" stroke-width="1.33333" stroke-miterlimit="8" fill-rule="evenodd"/>
    <path d="M260.5 562 269 551.5 277.5 562 269 572.5Z" stroke="#000000" stroke-width="1.33333" stroke-miterlimit="8" fill-rule="evenodd"/>
    <path d="M62.5001 562 71.0001 551.5 79.5001 562 71.0001 572.5Z" stroke="#000000" stroke-width="1.33333" stroke-miterlimit="8" fill-rule="evenodd"/>
    <rect x="776" y="216" width="158" height="137" fill="#D9D9D9"/>
    <text font-family="Century Gothic,Century Gothic_MSFontService,sans-serif" font-weight="400" font-size="7" transform="translate(785.51 228)" style="white-space: pre;">KEY METRICS:</text>
    <path d="M656.5 557.5 756.854 557.839" stroke="#000000" stroke-width="0.666667" stroke-miterlimit="8" fill="none" fill-rule="evenodd"/>
    <path d="M703.5 558 707.5 553.5 711.5 558 707.5 562.5Z" stroke="#000000" stroke-width="1.33333" stroke-miterlimit="8" fill-rule="evenodd"/>
    <path d="M726.5 558 730.5 553.5 734.5 558 730.5 562.5Z" stroke="#000000" stroke-width="1.33333" stroke-miterlimit="8" fill-rule="evenodd"/>
    <path d="M680.5 558 684.5 553.5 688.5 558 684.5 562.5Z" stroke="#000000" stroke-width="1.33333" stroke-miterlimit="8" fill-rule="evenodd"/>
    <path d="M749.5 558 753.5 553.5 757.5 558 753.5 562.5Z" stroke="#000000" stroke-width="1.33333" stroke-miterlimit="8" fill-rule="evenodd"/>
    <path d="M657.5 558 661.5 553.5 665.5 558 661.5 562.5Z" stroke="#000000" stroke-width="1.33333" stroke-miterlimit="8" fill-rule="evenodd"/>
    <path d="M657.5 597.5 757.854 597.839" stroke="#000000" stroke-width="0.666667" stroke-miterlimit="8" fill="none" fill-rule="evenodd"/>
    <path d="M703.5 598 707.5 593.5 711.5 598 707.5 602.5Z" stroke="#000000" stroke-width="1.33333" stroke-miterlimit="8" fill-rule="evenodd"/>
    <path d="M726.5 598 730.5 593.5 734.5 598 730.5 602.5Z" stroke="#000000" stroke-width="1.33333" stroke-miterlimit="8" fill-rule="evenodd"/>
    <path d="M680.5 598 684.5 593.5 688.5 598 684.5 602.5Z" stroke="#000000" stroke-width="1.33333" stroke-miterlimit="8" fill-rule="evenodd"/>
    <path d="M749.5 598 753.5 593.5 757.5 598 753.5 602.5Z" stroke="#000000" stroke-width="1.33333" stroke-miterlimit="8" fill-rule="evenodd"/>
    <path d="M657.5 598 661.5 593.5 665.5 598 661.5 602.5Z" stroke="#000000" stroke-width="1.33333" stroke-miterlimit="8" fill-rule="evenodd"/>
    <path d="M801.5 557.5 901.854 557.839" stroke="#000000" stroke-width="0.666667" stroke-miterlimit="8" fill="none" fill-rule="evenodd"/>
    <path d="M848.5 558 852.5 553.5 856.5 558 852.5 562.5Z" stroke="#000000" stroke-width="1.33333" stroke-miterlimit="8" fill-rule="evenodd"/>
    <path d="M871.5 558 875.5 553.5 879.5 558 875.5 562.5Z" stroke="#000000" stroke-width="1.33333" stroke-miterlimit="8" fill-rule="evenodd"/>
    <path d="M825.5 558 829.5 553.5 833.5 558 829.5 562.5Z" stroke="#000000" stroke-width="1.33333" stroke-miterlimit="8" fill-rule="evenodd"/>
    <path d="M894.5 558 898.5 553.5 902.5 558 898.5 562.5Z" stroke="#000000" stroke-width="1.33333" stroke-miterlimit="8" fill-rule="evenodd"/>
    <path d="M802.5 558 806.5 553.5 810.5 558 806.5 562.5Z" stroke="#000000" stroke-width="1.33333" stroke-miterlimit="8" fill-rule="evenodd"/>
    <path d="M802.5 597.5 902.854 597.839" stroke="#000000" stroke-width="0.666667" stroke-miterlimit="8" fill="none" fill-rule="evenodd"/>
    <path d="M848.5 598 852.5 593.5 856.5 598 852.5 602.5Z" stroke="#000000" stroke-width="1.33333" stroke-miterlimit="8" fill-rule="evenodd"/>
    <path d="M871.5 598 875.5 593.5 879.5 598 875.5 602.5Z" stroke="#000000" stroke-width="1.33333" stroke-miterlimit="8" fill-rule="evenodd"/>
    <path d="M825.5 598 829.5 593.5 833.5 598 829.5 602.5Z" stroke="#000000" stroke-width="1.33333" stroke-miterlimit="8" fill-rule="evenodd"/>
    <path d="M895.5 598 899 593.5 902.5 598 899 602.5Z" stroke="#000000" stroke-width="1.33333" stroke-miterlimit="8" fill-rule="evenodd"/>
    <path d="M802.5 598 806.5 593.5 810.5 598 806.5 602.5Z" stroke="#000000" stroke-width="1.33333" stroke-miterlimit="8" fill-rule="evenodd"/>
    <text fill="#A6A6A6" font-family="Century Gothic,Century Gothic_MSFontService,sans-serif" font-style="italic" font-weight="400" font-size="7" transform="translate(657.947 573)" style="white-space: pre;">strategic</text>
    <text fill="#A6A6A6" font-family="Century Gothic,Century Gothic_MSFontService,sans-serif" font-style="italic" font-weight="400" font-size="7" transform="translate(658.87 612)" style="white-space: pre;">cost</text>
    <text fill="#A6A6A6" font-family="Century Gothic,Century Gothic_MSFontService,sans-serif" font-style="italic" font-weight="400" font-size="7" transform="translate(804.323 573)" style="white-space: pre;">value proposition</text>
    <text fill="#A6A6A6" font-family="Century Gothic,Century Gothic_MSFontService,sans-serif" font-style="italic" font-weight="400" font-size="7" transform="translate(805.247 612)" style="white-space: pre;">revenue</text>
    <rect x="474.485" y="71.652" width="467" height="138.187" stroke="#000000" stroke-width="3" stroke-miterlimit="8" fill="none" style="stroke-width: 3;"/>
    <rect x="19.404" y="209.887" width="303" height="152.476" stroke="#000000" stroke-width="3" stroke-miterlimit="8" fill="none" style="stroke-width: 3;"/>
    <rect x="323.554" y="210.543" width="303" height="152.476" stroke="#000000" stroke-width="3" stroke-miterlimit="8" fill="none" style="stroke-width: 3;"/>
    <text font-family="Century Gothic,Century Gothic_MSFontService,sans-serif" font-weight="400" font-size="11" style="white-space: pre; font-size: 11px; stroke-width: 1;" x="331.613" y="226.718">COSTS</text>
    <text font-family="Century Gothic,Century Gothic_MSFontService,sans-serif" font-weight="400" font-size="11" style="white-space: pre; font-size: 11px; stroke-width: 1;" x="635.579" y="226.91">RISK(S)</text>
    <rect x="465.797" y="217.687" width="158" height="137" fill="#D9D9D9" style="stroke-width: 1;"/>
    <text font-family="Century Gothic,Century Gothic_MSFontService,sans-serif" font-weight="400" font-size="7" style="white-space: pre; stroke-width: 1; font-size: 7px;" x="467.312" y="229.096">KEY METRICS:</text>
    <rect x="162.575" y="216.723" width="151.096" height="137" fill="#D9D9D9" style="stroke-width: 1;"/>
    <text font-family="Century Gothic,Century Gothic_MSFontService,sans-serif" font-weight="400" font-size="7" style="white-space: pre; stroke-width: 1; font-size: 7px;" x="165.181" y="228.723">KEY METRICS:</text>
    <rect x="329.476" y="313.124" width="132.684" height="39" fill="#D9D9D9" style="stroke-width: 1;"/>
    <text font-family="Century Gothic,Century Gothic_MSFontService,sans-serif" font-weight="400" font-size="7" style="white-space: pre; font-size: 7px; stroke-width: 1;" x="334.699" y="324.724">KEY DEMAND DRIVER:</text>
    <rect x="23.946" y="313.148" width="132.684" height="39" fill="#D9D9D9" style="stroke-width: 1;"/>
    <text font-family="Century Gothic,Century Gothic_MSFontService,sans-serif" font-weight="400" font-size="7" style="white-space: pre; font-size: 7px; stroke-width: 1;" x="29.169" y="324.748">KEY DEMAND DRIVER:</text>
  </g>
</svg>